<?xml version="1.0" encoding="UTF-8"?>
<svg width="101px" height="103px" viewBox="0 0 101 103" version="1.1" xmlns="http://www.w3.org/2000/svg" xmlns:xlink="http://www.w3.org/1999/xlink">
    <!-- Generator: Sketch 48.2 (47327) - http://www.bohemiancoding.com/sketch -->
    <title>Combined Shape</title>
    <desc>Created with Sketch.</desc>
    <defs></defs>
    <g id="Page-1" stroke="none" stroke-width="1" fill="none" fill-rule="evenodd">
        <path d="M86.3753434,36.4946763 C94.0009554,36.6574567 100.132493,42.8793142 100.132493,50.5307956 C100.132493,58.2845355 93.83597,64.5701837 86.0688156,64.5701837 C78.3016614,64.5701837 72.0051388,58.2845355 72.0051388,50.5307956 C72.0051388,50.5118159 72.0046624,50.4923034 72.0037146,50.4722636 C72.0046633,50.3884483 72.0051388,50.3045197 72.0051388,50.2204801 C72.0051388,38.2945316 62.4281449,28.6015467 50.5327541,28.3875866 C50.5022984,28.3851849 50.4730352,28.3839748 50.4449824,28.3839748 C50.4262139,28.3839748 50.4069231,28.3844657 50.3871155,28.3854425 C50.3018117,28.3844649 50.2163908,28.3839748 50.1308552,28.3839748 C38.0500219,28.3839748 28.2565716,38.1605112 28.2565716,50.2204802 C28.2565716,50.3452293 28.2576195,50.469734 28.2597069,50.5939861 C28.2256081,58.3186575 21.942213,64.5701838 14.1961695,64.5701838 C6.42901517,64.5701838 0.13249255,58.2845356 0.13249255,50.5307957 C0.13249255,42.7981301 6.3948343,36.5255868 14.1328698,36.4915469 C14.2573368,36.4936307 14.382057,36.4946768 14.5070218,36.4946768 C26.5878551,36.4946768 36.3813055,26.7181402 36.3813055,14.6581713 C36.3813055,14.5745269 36.3808344,14.4909922 36.3798947,14.4075698 C36.3808335,14.3860764 36.3813055,14.3650802 36.3813055,14.3445867 C36.3813055,6.59084675 42.677828,0.30519865 50.4449823,0.30519865 C58.191895,0.30519865 64.4758311,6.55812805 64.5085311,14.2839968 C64.506436,14.4084709 64.5053843,14.5331985 64.5053843,14.6581713 C64.5053844,26.7167012 74.2964977,36.4923435 86.3753434,36.4946763 Z M50.0393881,102.127354 C42.2856481,102.127354 36,95.8308311 36,88.0636769 C36,80.2965226 42.2856481,74 50.0393881,74 C57.793128,74 64.0787761,80.2965226 64.0787761,88.0636769 C64.0787761,95.8308311 57.793128,102.127354 50.0393881,102.127354 Z" id="Combined-Shape" fill="#42B983" fill-rule="nonzero"></path>
    </g>
</svg>